<svg xmlns="http://www.w3.org/2000/svg" version="1.1" xmlns:xlink="http://www.w3.org/1999/xlink" xmlns:svgjs="http://svgjs.dev/svgjs" width="100%" height="100%" viewBox="0 0 1000 600"><rect width="1000" height="600" x="0" y="0" fill="#191919"/><g><rect width="333.3333333333333" height="333.3333333333333" rx="13.333333333333334" ry="13.333333333333334" y="322.66664197515695" fill="#b88746" transform="matrix(0.41605030524914766,0,0,0.41605030524914777,0,96.41271740787275)" x="300.4444274902344"/><path d="M470.38888200124114 564.3333154013571L470.38888200124114 564.3333154013571Q459.6111042234633 564.3333154013571 450.6111042234633 561.7499820680239Q441.6111042234633 559.1388709569127 435.3888820012411 556.0555376235793Q429.19443755679663 552.9444265124682 426.3888820012411 551.7499820680239L426.3888820012411 551.7499820680239Q423.8055486679078 553.7499820680239 421.8888820012411 555.3333154013571Q419.99999311235223 556.9444265124682 417.19443755679663 559.7499820680239L417.19443755679663 559.7499820680239Q415.19443755679663 561.7499820680239 413.3888820012411 560.8333154013571Q411.6111042234633 559.9444265124682 411.6111042234633 557.7499820680239L411.6111042234633 557.7499820680239L411.6111042234633 518.7499820680239Q411.6111042234633 516.3333154013571 414.3055486679078 515.9444265124682Q416.99999311235223 515.5555376235793 417.6111042234633 517.3333154013571L417.6111042234633 517.3333154013571Q421.3888820012411 528.5555376235794 429.19443755679663 537.3333154013571Q436.99999311235223 546.1388709569127 447.8888820012411 551.0555376235793Q458.8055486679078 555.9444265124682 471.38888200124114 555.9444265124682L471.38888200124114 555.9444265124682Q481.8055486679078 555.9444265124682 488.3055486679078 551.7499820680239Q494.8055486679078 547.5555376235793 497.99999311235223 541.0555376235794Q501.1944375567967 534.5555376235793 501.1944375567967 528.1388709569127L501.1944375567967 528.1388709569127Q501.1944375567967 519.5555376235793 496.3888820012411 514.2499820680239Q491.6111042234633 508.9444265124683 483.8055486679078 505.63887095691274Q475.99999311235223 502.33331540135714 466.49999311235223 499.9444265124683Q456.99999311235223 497.55553762357937 447.6111042234633 494.7499820680238Q438.1944375567967 491.9444265124683 430.3888820012411 487.4444265124683Q422.6111042234633 482.9444265124683 417.8055486679078 475.4444265124683Q412.99999311235223 467.9444265124682 412.99999311235223 456.33331540135714L412.99999311235223 456.33331540135714Q412.99999311235223 442.55553762357937 419.69443755679663 433.2499820680238Q426.3888820012411 423.9444265124682 437.6111042234633 419.1388709569127Q448.8055486679078 414.33331540135714 461.8055486679078 414.33331540135714L461.8055486679078 414.33331540135714Q470.1944375567967 414.33331540135714 477.88888200124114 416.33331540135714Q485.6111042234633 418.33331540135714 491.8055486679078 421.05553762357937Q497.99999311235223 423.7499820680238 501.38888200124114 425.9444265124682L501.38888200124114 425.9444265124682Q503.8055486679078 423.7499820680238 505.49999311235223 422.2499820680238Q507.1944375567967 420.7499820680238 508.1944375567967 419.9444265124683L508.1944375567967 419.9444265124683Q510.1944375567967 418.33331540135714 511.8055486679078 419.2499820680238Q513.3888820012412 420.1388709569127 513.3888820012412 422.7499820680238L513.3888820012412 422.7499820680238L513.3888820012412 456.9444265124683Q513.3888820012412 459.55553762357937 510.88888200124114 460.1388709569127Q508.3888820012411 460.7499820680238 507.3888820012411 458.13887095691274L507.3888820012411 458.13887095691274Q502.99999311235223 448.33331540135714 496.3055486679078 439.9444265124682Q489.6111042234633 431.55553762357937 480.8888820012411 426.33331540135714Q472.1944375567967 421.1388709569127 461.8055486679078 421.1388709569127L461.8055486679078 421.1388709569127Q453.1944375567967 421.1388709569127 446.6111042234633 424.83331540135714Q439.99999311235223 428.55553762357937 436.1944375567967 434.55553762357937Q432.3888820012411 440.55553762357937 432.3888820012411 447.9444265124683L432.3888820012411 447.9444265124683Q432.3888820012411 456.33331540135714 437.3055486679078 461.33331540135714Q442.1944375567967 466.33331540135714 450.1944375567967 469.33331540135714Q458.1944375567967 472.33331540135714 467.8888820012411 474.55553762357937Q477.6111042234633 476.7499820680238 487.1944375567967 479.4444265124683Q496.8055486679078 482.1388709569127 504.8055486679078 486.7499820680238Q512.8055486679077 491.33331540135714 517.6944375567966 499.05553762357937Q522.6111042234634 506.74998206802377 522.6111042234634 519.1388709569128L522.6111042234634 519.1388709569128Q522.6111042234634 533.3333154013571 515.8055486679077 543.5555376235793Q508.99999311235223 553.7499820680239 497.1944375567967 559.0555376235793Q485.3888820012411 564.3333154013571 470.38888200124114 564.3333154013571Z " fill="#191919" transform="matrix(0.41605030524914766,0,0,0.41605030524914777,0,96.41271740787275)"/><path d="M775.888882001241 564.3333154013571L775.888882001241 564.3333154013571Q765.1111042234633 564.3333154013571 756.1111042234633 561.7499820680239Q747.1111042234633 559.1388709569127 740.888882001241 556.0555376235793Q734.6944375567966 552.9444265124682 731.888882001241 551.7499820680239L731.888882001241 551.7499820680239Q729.3055486679077 553.7499820680239 727.388882001241 555.3333154013571Q725.4999931123521 556.9444265124682 722.6944375567966 559.7499820680239L722.6944375567966 559.7499820680239Q720.6944375567966 561.7499820680239 718.888882001241 560.8333154013571Q717.1111042234633 559.9444265124682 717.1111042234633 557.7499820680239L717.1111042234633 557.7499820680239L717.1111042234633 518.7499820680239Q717.1111042234633 516.3333154013571 719.8055486679077 515.9444265124682Q722.4999931123521 515.5555376235793 723.1111042234633 517.3333154013571L723.1111042234633 517.3333154013571Q726.888882001241 528.5555376235794 734.6944375567966 537.3333154013571Q742.4999931123521 546.1388709569127 753.388882001241 551.0555376235793Q764.3055486679077 555.9444265124682 776.888882001241 555.9444265124682L776.888882001241 555.9444265124682Q787.3055486679077 555.9444265124682 793.8055486679077 551.7499820680239Q800.3055486679077 547.5555376235793 803.4999931123521 541.0555376235794Q806.6944375567966 534.5555376235793 806.6944375567966 528.1388709569127L806.6944375567966 528.1388709569127Q806.6944375567966 519.5555376235793 801.888882001241 514.2499820680239Q797.1111042234633 508.9444265124683 789.3055486679077 505.63887095691274Q781.4999931123521 502.33331540135714 771.9999931123521 499.9444265124683Q762.4999931123521 497.55553762357937 753.1111042234633 494.7499820680238Q743.6944375567966 491.9444265124683 735.888882001241 487.4444265124683Q728.1111042234633 482.9444265124683 723.3055486679077 475.4444265124683Q718.4999931123521 467.9444265124682 718.4999931123521 456.33331540135714L718.4999931123521 456.33331540135714Q718.4999931123521 442.55553762357937 725.1944375567966 433.2499820680238Q731.888882001241 423.9444265124682 743.1111042234633 419.1388709569127Q754.3055486679077 414.33331540135714 767.3055486679077 414.33331540135714L767.3055486679077 414.33331540135714Q775.6944375567966 414.33331540135714 783.388882001241 416.33331540135714Q791.1111042234633 418.33331540135714 797.3055486679077 421.05553762357937Q803.4999931123521 423.7499820680238 806.888882001241 425.9444265124682L806.888882001241 425.9444265124682Q809.3055486679077 423.7499820680238 810.9999931123521 422.2499820680238Q812.6944375567966 420.7499820680238 813.6944375567966 419.9444265124683L813.6944375567966 419.9444265124683Q815.6944375567966 418.33331540135714 817.3055486679077 419.2499820680238Q818.888882001241 420.1388709569127 818.888882001241 422.7499820680238L818.888882001241 422.7499820680238L818.888882001241 456.9444265124683Q818.888882001241 459.55553762357937 816.388882001241 460.1388709569127Q813.888882001241 460.7499820680238 812.888882001241 458.13887095691274L812.888882001241 458.13887095691274Q808.4999931123521 448.33331540135714 801.8055486679077 439.9444265124682Q795.1111042234633 431.55553762357937 786.388882001241 426.33331540135714Q777.6944375567966 421.1388709569127 767.3055486679077 421.1388709569127L767.3055486679077 421.1388709569127Q758.6944375567966 421.1388709569127 752.1111042234633 424.83331540135714Q745.4999931123521 428.55553762357937 741.6944375567966 434.55553762357937Q737.888882001241 440.55553762357937 737.888882001241 447.9444265124683L737.888882001241 447.9444265124683Q737.888882001241 456.33331540135714 742.8055486679077 461.33331540135714Q747.6944375567966 466.33331540135714 755.6944375567966 469.33331540135714Q763.6944375567966 472.33331540135714 773.388882001241 474.55553762357937Q783.1111042234633 476.7499820680238 792.6944375567966 479.4444265124683Q802.3055486679077 482.1388709569127 810.3055486679077 486.7499820680238Q818.3055486679077 491.33331540135714 823.1944375567966 499.05553762357937Q828.1111042234634 506.74998206802377 828.1111042234634 519.1388709569128L828.1111042234634 519.1388709569128Q828.1111042234634 533.3333154013571 821.3055486679077 543.5555376235793Q814.4999931123521 553.7499820680239 802.6944375567966 559.0555376235793Q790.888882001241 564.3333154013571 775.888882001241 564.3333154013571ZM870.1111042234634 564.3333154013571L870.1111042234634 564.3333154013571Q857.1111042234634 564.3333154013571 848.6111042234634 558.3333154013571Q840.1111042234634 552.3333154013571 840.1111042234634 538.3333154013571L840.1111042234634 538.3333154013571Q840.1111042234634 526.5555376235793 847.388882001241 518.8333154013571Q854.6944375567966 511.1388709569127 867.888882001241 507.4444265124682Q881.1111042234634 503.7499820680238 898.6944375567966 503.9444265124683L898.6944375567966 503.9444265124683L898.6944375567966 496.1388709569127Q898.6944375567966 485.33331540135714 894.888882001241 479.05553762357937Q891.1111042234631 472.7499820680238 882.6944375567966 472.7499820680238L882.6944375567966 472.7499820680238Q874.888882001241 472.7499820680238 870.888882001241 475.6388709569127Q866.888882001241 478.55553762357937 868.888882001241 483.1388709569127L868.888882001241 483.1388709569127Q872.1111042234634 489.9444265124682 868.6944375567966 495.2499820680238Q865.3055486679077 500.55553762357937 857.1111042234634 500.55553762357937L857.1111042234634 500.55553762357937Q852.1111042234634 500.55553762357937 848.6944375567966 497.2499820680238Q845.3055486679077 493.9444265124683 845.3055486679077 487.9444265124683L845.3055486679077 487.9444265124683Q845.3055486679077 481.9444265124683 850.3055486679077 476.7499820680238Q855.3055486679077 471.55553762357937 863.9999931123521 468.2499820680238Q872.6944375567966 464.9444265124682 883.6944375567966 464.9444265124682L883.6944375567966 464.9444265124682Q901.888882001241 464.9444265124682 911.1111042234634 472.9444265124683Q920.3055486679077 480.9444265124683 920.3055486679077 494.9444265124683L920.3055486679077 494.9444265124683L920.3055486679077 537.3333154013571Q920.3055486679077 545.3333154013571 921.9999931123521 547.6388709569127Q923.6944375567966 549.9444265124682 926.3055486679077 549.9444265124682L926.3055486679077 549.9444265124682Q928.3055486679077 549.9444265124682 929.8055486679077 549.2499820680239Q931.3055486679077 548.5555376235793 932.1111042234634 547.7499820680239L932.1111042234634 547.7499820680239Q934.3055486679077 545.5555376235793 936.4999931123521 547.9444265124682L936.4999931123521 547.9444265124682Q937.4999931123521 548.9444265124682 937.3055486679077 550.1388709569127Q937.1111042234634 551.3333154013571 936.3055486679077 552.5555376235793L936.3055486679077 552.5555376235793Q933.4999931123521 557.1388709569127 929.388882001241 560.2499820680239Q925.3055486679077 563.3333154013571 919.4999931123521 563.3333154013571L919.4999931123521 563.3333154013571Q912.1111042234634 563.3333154013571 906.9999931123521 559.5555376235793Q901.888882001241 555.7499820680239 899.888882001241 547.7499820680239L899.888882001241 547.7499820680239Q896.3055486679077 554.3333154013571 889.6111042234634 559.3333154013571Q882.888882001241 564.3333154013571 870.1111042234634 564.3333154013571ZM880.1111042234634 552.3333154013571L880.1111042234634 552.3333154013571Q885.888882001241 552.3333154013571 890.1111042234634 549.0555376235793Q894.3055486679077 545.7499820680239 896.4999931123523 541.1388709569127Q898.6944375567966 536.5555376235793 898.6944375567966 532.3333154013571L898.6944375567966 532.3333154013571L898.6944375567966 510.9444265124683Q882.888882001241 510.55553762357937 873.3055486679077 515.9444265124682Q863.6944375567966 521.3333154013571 863.6944375567966 534.9444265124682L863.6944375567966 534.9444265124682Q863.6944375567966 542.7499820680239 866.6944375567966 546.4444265124682Q869.6944375567966 550.1388709569127 873.6111042234634 551.2499820680239Q877.4999931123521 552.3333154013571 880.1111042234634 552.3333154013571ZM986.6944375567966 564.3333154013571L986.6944375567966 564.3333154013571Q972.6944375567966 564.3333154013571 963.8055486679077 557.1388709569127Q954.888882001241 549.9444265124682 954.888882001241 534.1388709569127L954.888882001241 534.1388709569127L954.888882001241 484.7499820680238Q954.888882001241 480.1388709569127 953.9999931123521 477.9444265124683Q953.1111042234634 475.7499820680238 950.1111042234634 475.1388709569127L950.1111042234634 475.1388709569127Q948.4999931123521 474.7499820680238 946.1944375567966 474.55553762357937Q943.888882001241 474.33331540135714 942.3055486679077 474.1388709569127L942.3055486679077 474.1388709569127Q939.4999931123521 473.55553762357937 939.4999931123521 470.7499820680238L939.4999931123521 470.7499820680238Q939.4999931123521 467.55553762357937 942.4999931123521 467.55553762357937L942.4999931123521 467.55553762357937Q943.1111042234631 467.55553762357937 947.1944375567966 467.4444265124682Q951.3055486679077 467.33331540135714 956.4999931123521 467.33331540135714Q961.6944375567966 467.33331540135714 965.9999931123521 467.2499820680238Q970.3055486679077 467.1388709569127 971.4999931123523 467.1388709569127L971.4999931123523 467.1388709569127Q976.4999931123521 467.1388709569127 976.4999931123521 472.33331540135714L976.4999931123521 472.33331540135714L976.4999931123521 530.9444265124682Q976.4999931123521 541.3333154013571 981.6944375567966 546.1388709569127Q986.888882001241 550.9444265124682 995.3055486679077 550.9444265124682L995.3055486679077 550.9444265124682Q1005.888882001241 550.9444265124682 1010.9999931123521 544.2499820680239Q1016.1111042234634 537.5555376235793 1016.1111042234634 528.3333154013571L1016.1111042234634 528.3333154013571L1016.1111042234634 484.7499820680238Q1016.1111042234634 480.1388709569127 1015.1944375567966 477.9444265124683Q1014.3055486679077 475.7499820680238 1011.3055486679077 475.1388709569127L1011.3055486679077 475.1388709569127Q1009.6944375567966 474.7499820680238 1007.388882001241 474.55553762357937Q1005.1111042234634 474.33331540135714 1003.4999931123521 474.1388709569127L1003.4999931123521 474.1388709569127Q1000.6944375567966 473.55553762357937 1000.6944375567966 470.7499820680238L1000.6944375567966 470.7499820680238Q1000.6944375567966 467.55553762357937 1003.6944375567966 467.55553762357937L1003.6944375567966 467.55553762357937Q1004.3055486679077 467.55553762357937 1008.388882001241 467.4444265124682Q1012.4999931123521 467.33331540135714 1017.6944375567966 467.33331540135714Q1022.888882001241 467.33331540135714 1027.1944375567966 467.2499820680238Q1031.499993112352 467.1388709569127 1032.6944375567966 467.1388709569127L1032.6944375567966 467.1388709569127Q1037.6944375567966 467.1388709569127 1037.6944375567966 472.33331540135714L1037.6944375567966 472.33331540135714L1037.6944375567966 544.5555376235793Q1037.6944375567966 550.1388709569127 1038.8055486679077 551.7499820680239Q1039.888882001241 553.3333154013571 1042.499993112352 553.9444265124682L1042.499993112352 553.9444265124682Q1043.888882001241 554.1388709569127 1044.999993112352 554.4444265124682Q1046.1111042234634 554.7499820680238 1047.1111042234634 555.1388709569127L1047.1111042234634 555.1388709569127Q1050.1111042234634 555.3333154013571 1050.1111042234634 558.3333154013571L1050.1111042234634 558.3333154013571Q1050.1111042234634 561.5555376235793 1046.888882001241 561.5555376235793L1046.888882001241 561.5555376235793Q1046.3055486679077 561.5555376235793 1042.888882001241 561.6388709569127Q1039.499993112352 561.7499820680239 1034.999993112352 561.7499820680239Q1030.499993112352 561.7499820680239 1026.8055486679077 561.8333154013571Q1023.1111042234634 561.9444265124682 1021.888882001241 561.9444265124682L1021.888882001241 561.9444265124682Q1017.1111042234634 561.9444265124682 1016.888882001241 557.3333154013571L1016.888882001241 557.3333154013571Q1016.888882001241 555.7499820680239 1016.6944375567966 552.0555376235793Q1016.4999931123521 548.3333154013571 1016.1111042234634 546.7499820680239L1016.1111042234634 546.7499820680239Q1015.6944375567966 546.9444265124682 1013.888882001241 549.6388709569127Q1012.1111042234634 552.3333154013571 1008.6944375567966 555.7499820680239Q1005.3055486679077 559.1388709569127 999.888882001241 561.7499820680239Q994.4999931123521 564.3333154013571 986.6944375567966 564.3333154013571ZM1065.499993112352 561.9444265124682L1065.499993112352 561.9444265124682Q1062.3055486679077 561.9444265124682 1062.3055486679077 558.5555376235793L1062.3055486679077 558.5555376235793Q1062.3055486679077 555.3333154013571 1065.499993112352 555.3333154013571L1065.499993112352 555.3333154013571Q1073.1111042234634 555.3333154013571 1075.6944375567966 552.3333154013571Q1078.3055486679077 549.3333154013571 1078.3055486679077 542.1388709569127L1078.3055486679077 542.1388709569127L1078.3055486679077 434.55553762357937Q1078.3055486679077 428.9444265124682 1076.888882001241 427.2499820680238Q1075.499993112352 425.55553762357937 1072.6944375567966 424.9444265124682L1072.6944375567966 424.9444265124682Q1071.3055486679077 424.55553762357937 1068.3055486679077 424.2499820680238Q1065.3055486679077 423.9444265124682 1063.8888820012412 423.7499820680238L1063.8888820012412 423.7499820680238Q1061.1111042234634 423.33331540135714 1061.1111042234634 420.55553762357937L1061.1111042234634 420.55553762357937Q1061.1111042234634 417.55553762357937 1064.1111042234634 417.1388709569127L1064.1111042234634 417.1388709569127Q1064.6944375567966 417.1388709569127 1069.1111042234634 417.05553762357937Q1073.499993112352 416.9444265124682 1078.999993112352 416.9444265124682Q1084.499993112352 416.9444265124682 1089.1111042234634 416.83331540135714Q1093.6944375567966 416.7499820680238 1094.888882001241 416.7499820680238L1094.888882001241 416.7499820680238Q1099.888882001241 416.7499820680238 1099.888882001241 421.9444265124683L1099.888882001241 421.9444265124683L1099.888882001241 541.7499820680239Q1099.888882001241 549.1388709569127 1102.499993112352 552.2499820680239Q1105.1111042234631 555.3333154013571 1112.3055486679077 555.3333154013571L1112.3055486679077 555.3333154013571Q1115.3055486679077 555.3333154013571 1115.3055486679077 558.5555376235793L1115.3055486679077 558.5555376235793Q1115.3055486679077 561.9444265124682 1112.3055486679077 561.9444265124682L1112.3055486679077 561.9444265124682Q1110.888882001241 561.9444265124682 1106.6111042234634 561.7499820680239Q1102.3055486679077 561.5555376235793 1097.3888820012412 561.4444265124682Q1092.499993112352 561.3333154013571 1088.8888820012412 561.3333154013571L1088.8888820012412 561.3333154013571Q1085.4999931123523 561.3333154013571 1080.499993112352 561.4444265124682Q1075.499993112352 561.5555376235793 1071.1944375567966 561.7499820680239Q1066.888882001241 561.9444265124682 1065.499993112352 561.9444265124682ZM1176.499993112352 564.3333154013571L1176.499993112352 564.3333154013571Q1162.1111042234634 564.3333154013571 1151.499993112352 557.8333154013571Q1140.888882001241 551.3333154013571 1135.1111042234634 540.1388709569127Q1129.3055486679077 528.9444265124682 1129.3055486679077 514.5555376235793L1129.3055486679077 514.5555376235793Q1129.3055486679077 500.1388709569127 1135.1111042234634 488.9444265124683Q1140.888882001241 477.7499820680238 1151.499993112352 471.33331540135714Q1162.1111042234634 464.9444265124682 1176.499993112352 464.9444265124682L1176.499993112352 464.9444265124682Q1190.888882001241 464.9444265124682 1201.3888820012412 471.33331540135714Q1211.8888820012412 477.7499820680238 1217.6944375567966 488.9444265124683Q1223.499993112352 500.1388709569127 1223.499993112352 514.5555376235793L1223.499993112352 514.5555376235793Q1223.499993112352 528.9444265124682 1217.6944375567966 540.1388709569127Q1211.8888820012412 551.3333154013571 1201.3888820012412 557.8333154013571Q1190.888882001241 564.3333154013571 1176.499993112352 564.3333154013571ZM1176.499993112352 557.5555376235793L1176.499993112352 557.5555376235793Q1188.8888820012412 557.5555376235793 1194.388882001241 545.6388709569127Q1199.888882001241 533.7499820680239 1199.888882001241 514.5555376235793L1199.888882001241 514.5555376235793Q1199.888882001241 495.55553762357937 1194.388882001241 483.6388709569127Q1188.8888820012412 471.7499820680238 1176.499993112352 471.7499820680238L1176.499993112352 471.7499820680238Q1164.1111042234634 471.7499820680238 1158.4999931123523 483.6388709569127Q1152.888882001241 495.55553762357937 1152.888882001241 514.5555376235793L1152.888882001241 514.5555376235793Q1152.888882001241 533.7499820680239 1158.4999931123523 545.6388709569127Q1164.1111042234634 557.5555376235793 1176.499993112352 557.5555376235793ZM1234.8888820012412 561.9444265124682L1234.8888820012412 561.9444265124682Q1232.3055486679077 561.9444265124682 1232.3055486679077 558.7499820680239L1232.3055486679077 558.7499820680239Q1232.3055486679077 556.1388709569127 1234.8888820012412 556.1388709569127L1234.8888820012412 556.1388709569127Q1243.3055486679077 556.1388709569127 1248.499993112352 550.0555376235793Q1253.6944375567966 543.9444265124682 1253.6944375567966 529.3333154013571L1253.6944375567966 529.3333154013571L1253.6944375567966 436.1388709569127Q1253.6944375567966 428.9444265124682 1250.388882001241 425.6388709569127Q1247.1111042234631 422.33331540135714 1238.8888820012412 422.33331540135714L1238.8888820012412 422.33331540135714Q1236.3055486679077 422.33331540135714 1236.3055486679077 419.55553762357937L1236.3055486679077 419.55553762357937Q1236.3055486679077 416.7499820680238 1238.8888820012412 416.7499820680238L1238.8888820012412 416.7499820680238Q1240.6944375567966 416.7499820680238 1251.3055486679077 416.9444265124682Q1261.888882001241 417.1388709569127 1276.499993112352 417.1388709569127L1276.499993112352 417.1388709569127Q1283.3055486679077 417.1388709569127 1285.1111042234631 422.33331540135714L1285.1111042234631 422.33331540135714Q1285.499993112352 423.33331540135714 1287.388882001241 428.7499820680238Q1289.3055486679077 434.1388709569127 1292.1944375567966 442.33331540135714Q1295.1111042234631 450.55553762357937 1298.499993112352 460.2499820680238Q1301.888882001241 469.9444265124683 1305.388882001241 479.55553762357937Q1308.888882001241 489.1388709569127 1311.888882001241 497.4444265124683Q1314.888882001241 505.74998206802377 1316.888882001241 511.33331540135714Q1318.888882001241 516.9444265124682 1319.3055486679077 518.1388709569128L1319.3055486679077 518.1388709569128Q1320.1111042234631 516.3333154013571 1322.6944375567966 509.2499820680238Q1325.3055486679077 502.1388709569127 1328.888882001241 491.83331540135714Q1332.4999931123523 481.55553762357937 1336.4999931123523 470.33331540135714Q1340.4999931123523 459.13887095691274 1343.9999931123523 448.9444265124683Q1347.4999931123523 438.7499820680238 1349.888882001241 431.6388709569127Q1352.3055486679077 424.55553762357937 1352.6944375567966 423.1388709569127L1352.6944375567966 423.1388709569127Q1354.4999931123523 417.1388709569127 1361.4999931123523 417.1388709569127L1361.4999931123523 417.1388709569127Q1376.1111042234631 417.1388709569127 1385.888882001241 416.9444265124682Q1395.6944375567966 416.7499820680238 1397.1111042234631 416.7499820680238L1397.1111042234631 416.7499820680238Q1399.6944375567966 416.7499820680238 1399.6944375567966 419.55553762357937L1399.6944375567966 419.55553762357937Q1399.6944375567966 422.33331540135714 1397.1111042234631 422.33331540135714L1397.1111042234631 422.33331540135714Q1389.6944375567966 422.33331540135714 1386.8055486679077 425.4444265124682Q1383.888882001241 428.55553762357937 1383.888882001241 434.33331540135714L1383.888882001241 434.33331540135714L1383.888882001241 543.3333154013571Q1383.888882001241 549.7499820680239 1386.3055486679077 552.9444265124682Q1388.6944375567966 556.1388709569127 1395.888882001241 556.1388709569127L1395.888882001241 556.1388709569127Q1398.4999931123523 556.1388709569127 1398.4999931123523 558.7499820680239L1398.4999931123523 558.7499820680239Q1398.4999931123523 561.9444265124682 1395.888882001241 561.9444265124682L1395.888882001241 561.9444265124682Q1393.888882001241 561.9444265124682 1387.9999931123523 561.6388709569127Q1382.1111042234631 561.3333154013571 1372.888882001241 561.3333154013571L1372.888882001241 561.3333154013571Q1367.1111042234631 561.3333154013571 1360.8055486679077 561.4444265124682Q1354.4999931123523 561.5555376235793 1349.888882001241 561.7499820680239Q1345.3055486679077 561.9444265124682 1343.888882001241 561.9444265124682L1343.888882001241 561.9444265124682Q1340.888882001241 561.9444265124682 1340.888882001241 558.7499820680239L1340.888882001241 558.7499820680239Q1340.888882001241 556.1388709569127 1343.888882001241 556.1388709569127L1343.888882001241 556.1388709569127Q1353.1111042234631 556.1388709569127 1356.4999931123523 553.2499820680239Q1359.888882001241 550.3333154013571 1359.888882001241 543.3333154013571L1359.888882001241 543.3333154013571L1359.888882001241 425.7499820680238Q1346.888882001241 463.55553762357937 1337.9999931123523 488.7499820680238Q1329.1111042234631 513.9444265124682 1323.8055486679077 528.6388709569127Q1318.499993112352 543.3333154013571 1316.1944375567966 549.5555376235793Q1313.888882001241 555.7499820680239 1313.888882001241 555.7499820680239L1313.888882001241 555.7499820680239Q1313.888882001241 555.7499820680239 1313.888882001241 555.7499820680239L1313.888882001241 555.7499820680239Q1313.3055486679077 557.3333154013571 1312.8055486679077 557.6388709569127Q1312.3055486679077 557.9444265124682 1311.3055486679077 557.9444265124682L1311.3055486679077 557.9444265124682Q1309.6944375567966 557.9444265124682 1308.888882001241 556.1388709569127L1308.888882001241 556.1388709569127Q1308.6944375567966 555.9444265124682 1306.499993112352 550.0555376235793Q1304.3055486679077 544.1388709569127 1300.6111042234631 534.5555376235793Q1296.888882001241 524.9444265124682 1292.3055486679077 513.1388709569127Q1287.6944375567966 501.33331540135714 1282.999993112352 489.05553762357937Q1278.3055486679077 476.7499820680238 1273.888882001241 465.4444265124682Q1269.499993112352 454.1388709569127 1266.1111042234631 445.4444265124683Q1262.6944375567966 436.7499820680238 1261.1111042234631 432.33331540135714L1261.1111042234631 432.33331540135714L1261.1111042234631 529.1388709569127Q1261.1111042234631 544.3333154013571 1267.1111042234631 550.2499820680239Q1273.1111042234631 556.1388709569127 1281.1111042234631 556.1388709569127L1281.1111042234631 556.1388709569127Q1284.1111042234631 556.1388709569127 1284.1111042234631 558.7499820680239L1284.1111042234631 558.7499820680239Q1284.1111042234631 561.9444265124682 1281.1111042234631 561.9444265124682L1281.1111042234631 561.9444265124682Q1279.1111042234631 561.9444265124682 1272.999993112352 561.6388709569127Q1266.888882001241 561.3333154013571 1258.1111042234631 561.3333154013571L1258.1111042234631 561.3333154013571Q1247.6944375567966 561.3333154013571 1242.388882001241 561.6388709569127Q1237.1111042234631 561.9444265124682 1234.8888820012412 561.9444265124682ZM1457.4999931123523 564.3333154013571L1457.4999931123523 564.3333154013571Q1434.6944375567966 564.3333154013571 1421.8055486679075 551.9444265124682Q1408.888882001241 539.5555376235793 1408.888882001241 516.3333154013571L1408.888882001241 516.3333154013571Q1408.888882001241 501.7499820680238 1414.6944375567966 490.1388709569127Q1420.4999931123523 478.55553762357937 1431.1944375567966 471.7499820680238Q1441.888882001241 464.9444265124682 1456.1111042234631 464.9444265124682L1456.1111042234631 464.9444265124682Q1466.888882001241 464.9444265124682 1474.888882001241 469.13887095691274Q1482.888882001241 473.33331540135714 1488.1111042234631 480.1388709569127Q1493.3055486679077 486.9444265124683 1495.888882001241 494.83331540135714Q1498.4999931123523 502.7499820680238 1498.4999931123523 510.33331540135714L1498.4999931123523 510.33331540135714Q1498.4999931123523 513.5555376235793 1494.4999931123523 513.5555376235793L1494.4999931123523 513.5555376235793L1432.4999931123523 513.5555376235793Q1432.1111042234631 528.7499820680239 1435.1944375567966 537.3333154013571Q1438.3055486679075 545.9444265124682 1444.4999931123523 549.3333154013571Q1450.6944375567966 552.7499820680239 1459.4999931123523 552.7499820680239L1459.4999931123523 552.7499820680239Q1469.6944375567966 552.7499820680239 1477.8055486679077 548.3333154013571Q1485.8888820012412 543.9444265124682 1491.1111042234634 537.3333154013571L1491.1111042234634 537.3333154013571Q1493.3055486679077 534.7499820680239 1496.1111042234631 536.5555376235793L1496.1111042234631 536.5555376235793Q1498.888882001241 538.3333154013571 1496.888882001241 541.3333154013571L1496.888882001241 541.3333154013571Q1492.888882001241 547.3333154013571 1487.805548667908 552.5555376235793Q1482.6944375567966 557.7499820680239 1475.388882001241 561.0555376235793Q1468.1111042234631 564.3333154013571 1457.4999931123523 564.3333154013571ZM1432.888882001241 505.74998206802377L1432.888882001241 505.74998206802377L1474.4999931123523 505.74998206802377Q1474.888882001241 496.1388709569127 1473.1944375567966 488.55553762357937Q1471.4999931123523 480.9444265124683 1467.388882001241 476.55553762357937Q1463.3055486679075 472.13887095691274 1455.6944375567966 472.13887095691274L1455.6944375567966 472.13887095691274Q1446.1111042234631 472.13887095691274 1440.6944375567966 481.2499820680238Q1435.3055486679077 490.33331540135714 1432.888882001241 505.74998206802377ZM1556.3055486679077 564.3333154013571L1556.3055486679077 564.3333154013571Q1545.3055486679077 564.3333154013571 1535.8055486679077 559.5555376235793Q1526.3055486679077 554.7499820680238 1520.388882001241 544.2499820680239Q1514.4999931123523 533.7499820680239 1514.4999931123523 516.5555376235793L1514.4999931123523 516.5555376235793Q1514.4999931123523 498.9444265124683 1520.6111042234634 487.55553762357937Q1526.6944375567966 476.1388709569127 1536.1944375567966 470.55553762357937Q1545.6944375567966 464.9444265124682 1555.6944375567966 464.9444265124682L1555.6944375567966 464.9444265124682Q1563.6944375567966 464.9444265124682 1569.1944375567966 467.2499820680238Q1574.6944375567966 469.55553762357937 1578.4999931123523 472.6388709569127Q1582.3055486679077 475.7499820680238 1584.4999931123523 478.55553762357937L1584.4999931123523 478.55553762357937L1584.4999931123523 434.55553762357937Q1584.4999931123523 429.9444265124682 1583.1111042234634 427.83331540135714Q1581.6944375567966 425.7499820680238 1577.888882001241 424.9444265124682L1577.888882001241 424.9444265124682Q1576.499993112352 424.55553762357937 1573.888882001241 424.2499820680238Q1571.305548667908 423.9444265124682 1569.888882001241 423.7499820680238L1569.888882001241 423.7499820680238Q1567.1111042234631 423.55553762357937 1567.1111042234631 420.55553762357937L1567.1111042234631 420.55553762357937Q1567.1111042234631 417.1388709569127 1570.1111042234631 417.1388709569127L1570.1111042234631 417.1388709569127Q1570.6944375567966 417.1388709569127 1574.9999931123523 417.05553762357937Q1579.305548667908 416.9444265124682 1584.999993112352 416.9444265124682Q1590.6944375567966 416.9444265124682 1595.3055486679077 416.83331540135714Q1599.888882001241 416.7499820680238 1601.1111042234631 416.7499820680238L1601.1111042234631 416.7499820680238Q1606.1111042234631 416.7499820680238 1606.1111042234631 421.9444265124683L1606.1111042234631 421.9444265124683L1606.1111042234631 541.5555376235793Q1606.1111042234631 547.3333154013571 1607.1111042234631 550.0555376235793Q1608.1111042234634 552.7499820680239 1612.1111042234634 553.7499820680239L1612.1111042234634 553.7499820680239Q1613.4999931123523 553.9444265124682 1615.3055486679077 554.2499820680238Q1617.1111042234631 554.5555376235794 1618.3055486679077 554.9444265124682L1618.3055486679077 554.9444265124682Q1621.1111042234631 555.5555376235793 1621.1111042234631 558.1388709569127L1621.1111042234631 558.1388709569127Q1621.1111042234631 561.1388709569127 1618.1111042234631 561.5555376235793L1618.1111042234631 561.5555376235793Q1617.4999931123523 561.5555376235793 1613.4999931123523 561.6388709569127Q1609.4999931123523 561.7499820680239 1604.305548667908 561.7499820680239Q1599.1111042234631 561.7499820680239 1594.8055486679077 561.8333154013571Q1590.4999931123523 561.9444265124682 1589.3055486679077 561.9444265124682L1589.3055486679077 561.9444265124682Q1584.3055486679075 561.9444265124682 1584.3055486679075 557.1388709569127L1584.3055486679075 557.1388709569127L1584.3055486679075 549.3333154013571Q1583.888882001241 549.3333154013571 1582.1111042234631 551.3333154013571L1582.1111042234631 551.3333154013571Q1580.3055486679077 553.3333154013571 1577.1111042234631 556.4444265124682Q1573.888882001241 559.5555376235793 1568.8055486679077 561.9444265124682Q1563.6944375567966 564.3333154013571 1556.3055486679077 564.3333154013571ZM1560.8888820012412 555.9444265124682L1560.8888820012412 555.9444265124682Q1566.3055486679077 555.9444265124682 1571.6944375567966 552.1388709569127Q1577.1111042234631 548.3333154013571 1580.8055486679077 541.2499820680239Q1584.4999931123523 534.1388709569127 1584.4999931123523 524.3333154013571L1584.4999931123523 524.3333154013571L1584.4999931123523 499.9444265124683Q1584.4999931123523 493.1388709569127 1581.6944375567966 487.1388709569127Q1578.888882001241 481.1388709569127 1573.6944375567966 477.2499820680238Q1568.4999931123523 473.33331540135714 1560.8888820012412 473.33331540135714L1560.8888820012412 473.33331540135714Q1552.1111042234631 473.33331540135714 1547.1111042234631 478.9444265124683Q1542.1111042234631 484.55553762357937 1539.9999931123523 494.55553762357937Q1537.888882001241 504.5555376235794 1537.888882001241 517.9444265124682L1537.888882001241 517.9444265124682Q1537.888882001241 530.5555376235793 1539.9999931123523 538.1388709569127Q1542.1111042234631 545.7499820680239 1545.6111042234634 549.5555376235793Q1549.1111042234631 553.3333154013571 1553.1111042234631 554.6388709569127Q1557.1111042234631 555.9444265124682 1560.8888820012412 555.9444265124682ZM1681.6944375567966 564.3333154013571L1681.6944375567966 564.3333154013571Q1658.888882001241 564.3333154013571 1645.9999931123523 551.9444265124682Q1633.1111042234634 539.5555376235793 1633.1111042234634 516.3333154013571L1633.1111042234634 516.3333154013571Q1633.1111042234634 501.7499820680238 1638.888882001241 490.1388709569127Q1644.6944375567966 478.55553762357937 1655.388882001241 471.7499820680238Q1666.1111042234634 464.9444265124682 1680.3055486679077 464.9444265124682L1680.3055486679077 464.9444265124682Q1691.1111042234634 464.9444265124682 1699.1111042234631 469.13887095691274Q1707.1111042234631 473.33331540135714 1712.3055486679077 480.1388709569127Q1717.4999931123523 486.9444265124683 1720.1111042234631 494.83331540135714Q1722.6944375567966 502.7499820680238 1722.6944375567966 510.33331540135714L1722.6944375567966 510.33331540135714Q1722.6944375567966 513.5555376235793 1718.6944375567966 513.5555376235793L1718.6944375567966 513.5555376235793L1656.6944375567966 513.5555376235793Q1656.3055486679077 528.7499820680239 1659.388882001241 537.3333154013571Q1662.4999931123523 545.9444265124682 1668.6944375567966 549.3333154013571Q1674.888882001241 552.7499820680239 1683.6944375567966 552.7499820680239L1683.6944375567966 552.7499820680239Q1693.8888820012412 552.7499820680239 1701.9999931123523 548.3333154013571Q1710.1111042234631 543.9444265124682 1715.3055486679077 537.3333154013571L1715.3055486679077 537.3333154013571Q1717.4999931123523 534.7499820680239 1720.3055486679077 536.5555376235793L1720.3055486679077 536.5555376235793Q1723.1111042234631 538.3333154013571 1721.1111042234631 541.3333154013571L1721.1111042234631 541.3333154013571Q1717.1111042234631 547.3333154013571 1711.9999931123523 552.5555376235793Q1706.888882001241 557.7499820680239 1699.6111042234634 561.0555376235793Q1692.3055486679075 564.3333154013571 1681.6944375567966 564.3333154013571ZM1657.1111042234631 505.74998206802377L1657.1111042234631 505.74998206802377L1698.6944375567966 505.74998206802377Q1699.1111042234631 496.1388709569127 1697.388882001241 488.55553762357937Q1695.6944375567966 480.9444265124683 1691.6111042234631 476.55553762357937Q1687.4999931123523 472.13887095691274 1679.888882001241 472.13887095691274L1679.888882001241 472.13887095691274Q1670.3055486679077 472.13887095691274 1664.8888820012412 481.2499820680238Q1659.4999931123523 490.33331540135714 1657.1111042234631 505.74998206802377ZM1741.1111042234631 561.9444265124682L1741.1111042234631 561.9444265124682Q1737.888882001241 561.9444265124682 1737.888882001241 558.7499820680239L1737.888882001241 558.7499820680239Q1737.888882001241 555.3333154013571 1741.1111042234631 555.3333154013571L1741.1111042234631 555.3333154013571Q1748.6944375567966 555.3333154013571 1751.305548667908 552.1388709569127Q1753.888882001241 548.9444265124682 1753.888882001241 541.7499820680239L1753.888882001241 541.7499820680239L1753.888882001241 484.9444265124683Q1753.888882001241 479.33331540135714 1752.805548667908 477.4444265124682Q1751.6944375567966 475.55553762357937 1748.888882001241 475.33331540135714L1748.888882001241 475.33331540135714Q1747.4999931123523 475.1388709569127 1744.1944375567966 474.83331540135714Q1740.888882001241 474.55553762357937 1739.4999931123523 474.33331540135714L1739.4999931123523 474.33331540135714Q1736.6944375567966 473.7499820680238 1736.6944375567966 470.9444265124683L1736.6944375567966 470.9444265124683Q1736.6944375567966 467.7499820680238 1739.6944375567966 467.7499820680238L1739.6944375567966 467.7499820680238Q1740.3055486679075 467.7499820680238 1744.6944375567966 467.6388709569127Q1749.1111042234631 467.55553762357937 1754.6111042234631 467.55553762357937Q1760.1111042234631 467.55553762357937 1764.6944375567966 467.4444265124682Q1769.305548667908 467.33331540135714 1770.4999931123523 467.33331540135714L1770.4999931123523 467.33331540135714Q1775.4999931123523 467.33331540135714 1775.4999931123523 471.9444265124683L1775.4999931123523 471.9444265124683L1775.4999931123523 541.7499820680239Q1775.4999931123523 548.9444265124682 1777.888882001241 552.1388709569127Q1780.3055486679075 555.3333154013571 1786.6944375567966 555.3333154013571L1786.6944375567966 555.3333154013571Q1789.6944375567966 555.3333154013571 1789.6944375567966 558.7499820680239L1789.6944375567966 558.7499820680239Q1789.6944375567966 561.9444265124682 1786.6944375567966 561.9444265124682L1786.6944375567966 561.9444265124682Q1785.3055486679075 561.9444265124682 1781.3055486679075 561.7499820680239Q1777.3055486679075 561.5555376235793 1772.6944375567966 561.4444265124682Q1768.1111042234631 561.3333154013571 1764.4999931123523 561.3333154013571L1764.4999931123523 561.3333154013571Q1761.1111042234631 561.3333154013571 1756.1111042234631 561.4444265124682Q1751.1111042234631 561.5555376235793 1746.8055486679075 561.7499820680239Q1742.4999931123523 561.9444265124682 1741.1111042234631 561.9444265124682ZM1763.1111042234631 445.55553762357937L1763.1111042234631 445.55553762357937Q1757.1111042234631 445.55553762357937 1752.888882001241 441.33331540135714Q1748.6944375567966 437.1388709569127 1748.6944375567966 431.1388709569127L1748.6944375567966 431.1388709569127Q1748.6944375567966 425.1388709569127 1752.888882001241 420.9444265124683Q1757.1111042234631 416.7499820680238 1763.1111042234631 416.7499820680238L1763.1111042234631 416.7499820680238Q1769.1111042234636 416.7499820680238 1773.3055486679075 420.9444265124683Q1777.4999931123523 425.1388709569127 1777.4999931123523 431.1388709569127L1777.4999931123523 431.1388709569127Q1777.4999931123523 437.1388709569127 1773.3055486679075 441.33331540135714Q1769.1111042234636 445.55553762357937 1763.1111042234631 445.55553762357937ZM1805.8888820012414 561.9444265124682L1805.8888820012414 561.9444265124682Q1802.888882001241 561.9444265124682 1802.888882001241 558.5555376235793L1802.888882001241 558.5555376235793Q1802.888882001241 555.3333154013571 1805.8888820012414 555.3333154013571L1805.8888820012414 555.3333154013571Q1814.1111042234631 555.3333154013571 1818.1111042234631 552.3333154013571Q1822.1111042234631 549.3333154013571 1822.1111042234631 542.1388709569127L1822.1111042234631 542.1388709569127L1822.1111042234631 484.9444265124683Q1822.1111042234631 480.55553762357937 1821.1944375567966 478.33331540135714Q1820.305548667908 476.1388709569127 1817.4999931123523 475.7499820680238L1817.4999931123523 475.7499820680238Q1816.4999931123523 475.55553762357937 1813.6944375567966 475.2499820680238Q1810.8888820012414 474.9444265124683 1808.1944375567966 474.7499820680238Q1805.4999931123523 474.55553762357937 1804.4999931123523 474.33331540135714L1804.4999931123523 474.33331540135714Q1801.6944375567966 473.7499820680238 1801.6944375567966 471.13887095691274L1801.6944375567966 471.13887095691274Q1801.6944375567966 467.7499820680238 1804.6944375567966 467.7499820680238L1804.6944375567966 467.7499820680238Q1805.3055486679075 467.7499820680238 1809.9999931123523 467.6388709569127Q1814.6944375567966 467.55553762357937 1820.6111042234636 467.55553762357937Q1826.4999931123523 467.55553762357937 1831.3888820012414 467.4444265124682Q1836.305548667908 467.33331540135714 1837.4999931123523 467.33331540135714L1837.4999931123523 467.33331540135714Q1842.4999931123523 467.33331540135714 1842.4999931123523 472.55553762357937L1842.4999931123523 472.55553762357937L1842.4999931123523 486.9444265124683Q1845.305548667908 482.1388709569127 1849.888882001241 477.05553762357937Q1854.4999931123523 471.9444265124683 1860.6111042234636 468.4444265124683Q1866.6944375567966 464.9444265124682 1874.1111042234636 464.9444265124682L1874.1111042234636 464.9444265124682Q1885.6944375567966 464.9444265124682 1891.305548667908 469.7499820680238Q1896.8888820012414 474.55553762357937 1896.8888820012414 482.1388709569127L1896.8888820012414 482.1388709569127Q1896.8888820012414 486.55553762357937 1893.6111042234636 491.05553762357937Q1890.305548667908 495.55553762357937 1883.6944375567966 495.55553762357937L1883.6944375567966 495.55553762357937Q1876.3055486679075 495.55553762357937 1873.6111042234636 491.6388709569127Q1870.888882001241 487.7499820680238 1870.888882001241 483.9444265124683L1870.888882001241 483.9444265124683Q1870.888882001241 479.9444265124683 1869.6944375567966 478.2499820680238Q1868.4999931123523 476.55553762357937 1865.4999931123523 476.55553762357937L1865.4999931123523 476.55553762357937Q1860.3055486679075 476.55553762357937 1855.1944375567966 481.55553762357937Q1850.1111042234631 486.55553762357937 1846.8055486679075 494.4444265124683Q1843.4999931123523 502.33331540135714 1843.4999931123523 511.55553762357937L1843.4999931123523 511.55553762357937L1843.4999931123523 541.7499820680239Q1843.4999931123523 549.3333154013571 1848.1944375567966 552.3333154013571Q1852.888882001241 555.3333154013571 1860.1111042234631 555.3333154013571L1860.1111042234631 555.3333154013571Q1863.3055486679075 555.3333154013571 1863.3055486679075 558.5555376235793L1863.3055486679075 558.5555376235793Q1863.3055486679075 561.9444265124682 1860.1111042234631 561.9444265124682L1860.1111042234631 561.9444265124682Q1858.1111042234636 561.9444265124682 1850.8055486679075 561.6388709569127Q1843.4999931123523 561.3333154013571 1832.6944375567966 561.3333154013571L1832.6944375567966 561.3333154013571Q1823.4999931123523 561.3333154013571 1815.805548667908 561.6388709569127Q1808.1111042234636 561.9444265124682 1805.8888820012414 561.9444265124682ZM1956.1111042234636 564.3333154013571L1956.1111042234636 564.3333154013571Q1941.6944375567966 564.3333154013571 1931.1111042234636 557.8333154013571Q1920.4999931123523 551.3333154013571 1914.6944375567966 540.1388709569127Q1908.8888820012414 528.9444265124682 1908.8888820012414 514.5555376235793L1908.8888820012414 514.5555376235793Q1908.8888820012414 500.1388709569127 1914.6944375567966 488.9444265124683Q1920.4999931123523 477.7499820680238 1931.1111042234636 471.33331540135714Q1941.6944375567966 464.9444265124682 1956.1111042234636 464.9444265124682L1956.1111042234636 464.9444265124682Q1970.4999931123523 464.9444265124682 1980.9999931123523 471.33331540135714Q1991.4999931123523 477.7499820680238 1997.3055486679075 488.9444265124683Q2003.1111042234636 500.1388709569127 2003.1111042234636 514.5555376235793L2003.1111042234636 514.5555376235793Q2003.1111042234636 528.9444265124682 1997.3055486679075 540.1388709569127Q1991.4999931123523 551.3333154013571 1980.9999931123523 557.8333154013571Q1970.4999931123523 564.3333154013571 1956.1111042234636 564.3333154013571ZM1956.1111042234636 557.5555376235793L1956.1111042234636 557.5555376235793Q1968.4999931123523 557.5555376235793 1973.9999931123523 545.6388709569127Q1979.4999931123523 533.7499820680239 1979.4999931123523 514.5555376235793L1979.4999931123523 514.5555376235793Q1979.4999931123523 495.55553762357937 1973.9999931123523 483.6388709569127Q1968.4999931123523 471.7499820680238 1956.1111042234636 471.7499820680238L1956.1111042234636 471.7499820680238Q1943.6944375567966 471.7499820680238 1938.1111042234631 483.6388709569127Q1932.4999931123523 495.55553762357937 1932.4999931123523 514.5555376235793L1932.4999931123523 514.5555376235793Q1932.4999931123523 533.7499820680239 1938.1111042234631 545.6388709569127Q1943.6944375567966 557.5555376235793 1956.1111042234636 557.5555376235793ZM2064.1111042234634 564.3333154013571L2064.1111042234634 564.3333154013571Q2058.1111042234634 564.3333154013571 2051.8888820012417 562.8333154013571Q2045.6944375567966 561.3333154013571 2040.6111042234636 559.4444265124682Q2035.4999931123523 557.5555376235793 2032.888882001241 556.3333154013571L2032.888882001241 556.3333154013571Q2030.1111042234631 557.7499820680239 2028.4999931123523 559.1388709569127Q2026.8888820012414 560.5555376235793 2025.305548667908 562.1388709569127L2025.305548667908 562.1388709569127Q2023.3055486679075 564.1388709569127 2021.1944375567966 563.3333154013571Q2019.1111042234636 562.5555376235793 2019.1111042234636 559.7499820680239L2019.1111042234636 559.7499820680239L2019.1111042234636 531.9444265124682Q2019.1111042234636 529.3333154013571 2021.3888820012414 528.9444265124682Q2023.6944375567966 528.5555376235794 2024.888882001241 530.5555376235793L2024.888882001241 530.5555376235793Q2039.8888820012414 555.1388709569127 2064.499993112352 555.1388709569127L2064.499993112352 555.1388709569127Q2074.1111042234634 555.1388709569127 2080.8055486679077 551.1388709569127Q2087.499993112352 547.1388709569127 2087.499993112352 539.3333154013571L2087.499993112352 539.3333154013571Q2087.499993112352 534.1388709569127 2082.6944375567964 531.3333154013571Q2077.8888820012407 528.5555376235794 2070.3055486679077 526.8333154013571Q2062.6944375567964 525.1388709569127 2054.3055486679077 523.1388709569127Q2045.888882001241 521.1388709569127 2038.3055486679075 517.7499820680239Q2030.6944375567966 514.3333154013571 2025.8888820012414 508.2499820680238Q2021.1111042234631 502.1388709569127 2021.1111042234631 491.9444265124683L2021.1111042234631 491.9444265124683Q2021.1111042234631 485.1388709569127 2024.805548667908 478.9444265124683Q2028.4999931123523 472.7499820680238 2036.1111042234636 468.83331540135714Q2043.6944375567966 464.9444265124682 2055.3055486679077 464.9444265124682L2055.3055486679077 464.9444265124682Q2064.1111042234634 464.9444265124682 2072.499993112352 467.4444265124682Q2080.8888820012417 469.9444265124683 2085.3055486679077 472.13887095691274L2085.3055486679077 472.13887095691274Q2086.499993112352 471.13887095691274 2088.3888820012417 469.55553762357937Q2090.3055486679077 467.9444265124682 2091.8888820012407 466.7499820680238L2091.8888820012407 466.7499820680238Q2093.6944375567964 465.55553762357937 2095.1944375567964 465.83331540135714Q2096.6944375567964 466.1388709569127 2096.6944375567964 468.7499820680238L2096.6944375567964 468.7499820680238L2096.6944375567964 493.7499820680238Q2096.6944375567964 496.33331540135714 2094.3055486679077 496.83331540135714Q2091.8888820012407 497.33331540135714 2090.8888820012407 495.33331540135714L2090.8888820012407 495.33331540135714Q2085.8888820012417 483.55553762357937 2076.6944375567964 478.33331540135714Q2067.499993112352 473.1388709569127 2058.3055486679077 473.1388709569127L2058.3055486679077 473.1388709569127Q2047.8888820012414 473.1388709569127 2042.4999931123523 477.6388709569127Q2037.1111042234636 482.1388709569127 2037.1111042234636 487.9444265124683L2037.1111042234636 487.9444265124683Q2037.1111042234636 492.7499820680238 2041.888882001241 495.2499820680238Q2046.6944375567966 497.7499820680238 2054.1944375567964 499.2499820680238Q2061.6944375567964 500.7499820680238 2070.1111042234634 502.4444265124683Q2078.499993112352 504.1388709569127 2085.999993112352 507.55553762357937Q2093.499993112352 510.9444265124683 2098.3055486679077 517.2499820680238Q2103.1111042234634 523.5555376235793 2103.1111042234634 534.1388709569127L2103.1111042234634 534.1388709569127Q2103.1111042234634 542.5555376235793 2098.3055486679077 549.4444265124682Q2093.499993112352 556.3333154013571 2084.6944375567964 560.3333154013571Q2075.8888820012417 564.3333154013571 2064.1111042234634 564.3333154013571Z " fill="#b88746" transform="matrix(0.41605030524914766,0,0,0.41605030524914777,0,96.41271740787275)"/></g></svg>